<?xml version="1.0" encoding="utf-8"?>
<!-- Uploaded to: SVG Repo, www.svgrepo.com, Generator: SVG Repo Mixer Tools -->
<svg width="800px" height="800px" viewBox="0 0 64 64" xmlns="http://www.w3.org/2000/svg" xmlns:xlink="http://www.w3.org/1999/xlink" aria-hidden="true" role="img" class="iconify iconify--emojione" preserveAspectRatio="xMidYMid meet">
<path d="M32 2c-1.1 0-2 13.4-2 30s.9 30 2 30c16.6 0 30-13.4 30-30S48.6 2 32 2z" fill="#ffe8a6">
</path>
<path d="M30 32c0-16.6.9-30 2-30C15.4 2 2 15.4 2 32s13.4 30 30 30c-1.1 0-2-13.4-2-30" fill="#3e4347">
</path>
<g fill="#f4dc9f">
<circle cx="50" cy="35.2" r="7">
</circle>
<path d="M30.1 43.3c.1 5.1.4 9.5.7 12.8c1.5-1.6 2.3-3.7 2.3-6c.1-2.7-1.1-5.1-3-6.8">
</path>
<circle cx="37" cy="18.2" r="4">
</circle>
<circle cx="39" cy="9.2" r="2">
</circle>
<circle cx="52" cy="50" r="2">
</circle>
<circle cx="46" cy="52.6" r="4">
</circle>
<path d="M34.2 10.8c0-2.1-1.3-3.9-3.2-4.6c-.3 2.4-.5 5.6-.7 9.5c2.2-.6 3.9-2.6 3.9-4.9">
</path>
</g>
<g fill="#464d51">
<path d="M24.2 41h-.4c.2-.6.4-1.3.4-2c0-3.3-2.7-6-6-6s-6 2.7-6 6c0 2.9 2 5.2 4.7 5.8c-1 1.5-1.6 3.2-1.6 5.2c0 5 4 9 9 9c2.6 0 5-1.1 6.7-3c-.3-3.2-.5-7.6-.7-12.8c-1.7-1.3-3.8-2.2-6.1-2.2">
</path>
<path d="M24 21.2c2.2 0 4-1.8 4-4c0-.6-.2-1.2-.4-1.8c.5.2 1 .3 1.6.3c.4 0 .8-.1 1.2-.2c.2-3.9.4-7.1.7-9.5c-.6-.2-1.2-.4-1.8-.4c-2.8 0-5 2.2-5 5c0 1 .3 1.9.8 2.6c-.3-.1-.6-.1-.9-.1c-2.2 0-4 1.8-4 4c-.2 2.4 1.6 4.1 3.8 4.1">
</path>
<circle cx="12.1" cy="25.9" r="4">
</circle>
<circle cx="8.1" cy="39" r="2">
</circle>
<circle cx="25" cy="29.9" r="3">
</circle>
<circle cx="15" cy="15.7" r="2">
</circle>
</g>
</svg>