<svg class="svg-icon" style="width: 1em;height: 1em;vertical-align: middle;fill: currentColor;overflow: hidden;" viewBox="0 0 1024 1024" version="1.1" xmlns="http://www.w3.org/2000/svg"><path d="M718.506667 500.906667a213.333333 213.333333 0 0 0-413.013334 0 42.666667 42.666667 0 0 0 42.666667 53.333333h330.24a42.666667 42.666667 0 0 0 42.666667-53.333333z" fill="#F8D800" /><path d="M512 298.666667a42.666667 42.666667 0 0 1-42.666667-42.666667V170.666667a42.666667 42.666667 0 0 1 85.333334 0v85.333333a42.666667 42.666667 0 0 1-42.666667 42.666667zM300.8 386.133333a42.666667 42.666667 0 0 1-30.293333-12.373333L210.346667 313.173333a42.666667 42.666667 0 0 1 60.16-60.16l60.586666 60.16a42.666667 42.666667 0 0 1 0 60.586667 42.666667 42.666667 0 0 1-30.293333 12.373333zM725.333333 386.133333a42.666667 42.666667 0 0 1-30.293333-12.373333 42.666667 42.666667 0 0 1 0-60.586667l60.586667-60.16a42.666667 42.666667 0 1 1 60.16 60.16l-62.293334 60.586667a42.666667 42.666667 0 0 1-28.16 12.373333z" fill="#FE9517" /><path d="M896 725.333333H128a42.666667 42.666667 0 0 1 0-85.333333h768a42.666667 42.666667 0 0 1 0 85.333333z" fill="#53AFFB" /><path d="M725.333333 896H298.666667a42.666667 42.666667 0 0 1 0-85.333333h426.666666a42.666667 42.666667 0 0 1 0 85.333333z" fill="#309FFB" /></svg>